# Blender v2.79 (sub 0) OBJ File: 'platformer.blend'
# www.blender.org
mtllib zabor.mtl
o zabor_lo_Плоскость.010
v 11.932265 -0.821830 0.031588
v 11.932265 0.899185 0.031588
v 12.185914 -1.000000 -1.000000
v 12.185914 1.000000 -1.000000
v 12.101833 0.038678 0.372181
v 12.385914 0.000000 -1.000000
v 11.932265 -4.821830 0.031588
v 11.932265 -3.100815 0.031588
v 12.185914 -5.000000 -1.000000
v 12.185914 -3.000000 -1.000000
v 12.101833 -3.961323 0.372181
v 12.385914 -4.000000 -1.000000
v -1.930254 -4.821830 0.031588
v -1.930254 -3.100815 0.031588
v -2.183903 -5.000000 -1.000000
v -2.183903 -3.000000 -1.000000
v -2.099822 -3.961323 0.372181
v -2.383903 -4.000000 -1.000000
v -1.930254 -0.821830 0.031588
v -1.930254 0.899185 0.031588
v -2.183903 -1.000000 -1.000000
v -2.183903 1.000000 -1.000000
v -2.099822 0.038678 0.372181
v -2.383903 0.000000 -1.000000
v 0.835171 -0.821830 0.031689
v -0.885843 0.899185 0.031689
v 0.835171 0.899185 0.031689
v -0.999999 1.000000 -1.000000
v 1.000000 1.000000 -1.000000
v -0.999999 3.000069 -1.000000
v -0.025336 -0.821830 0.323147
v -0.025336 0.899185 0.323147
v 0.835171 0.038678 0.326255
v -0.025336 0.038678 0.323147
v -0.885843 -0.821830 0.031689
v -0.799793 2.600734 0.031689
v 0.749120 2.607009 0.031689
v -0.999999 -1.000000 -1.000000
v 1.000000 3.000069 -1.000000
v 1.000000 -1.000000 -1.000000
v -0.025336 2.872431 0.323147
v 0.000000 3.300000 -1.000000
v -0.885843 0.038678 0.326651
v 5.835171 -0.821830 0.031689
v 4.114157 0.899185 0.031689
v 5.835171 0.899185 0.031689
v 4.000000 1.000000 -1.000000
v 6.000000 1.000000 -1.000000
v 4.000000 3.000069 -1.000000
v 4.974664 -0.821830 0.323147
v 4.974664 0.899185 0.323147
v 5.835171 0.038678 0.326255
v 4.974664 0.038678 0.323147
v 4.114157 -0.821830 0.031689
v 4.200207 2.600734 0.031689
v 5.749120 2.607009 0.031689
v 4.000000 -1.000000 -1.000000
v 6.000000 3.000069 -1.000000
v 6.000000 -1.000000 -1.000000
v 4.974664 2.872431 0.323147
v 5.000000 3.300000 -1.000000
v 4.114157 0.038678 0.326651
v 10.835171 -0.821830 0.031689
v 9.114157 0.899185 0.031689
v 10.835171 0.899185 0.031689
v 9.000000 1.000000 -1.000000
v 11.000000 1.000000 -1.000000
v 9.000000 3.000069 -1.000000
v 9.974663 -0.821830 0.323147
v 9.974663 0.899185 0.323147
v 10.835171 0.038678 0.326255
v 9.974663 0.038678 0.323147
v 9.114157 -0.821830 0.031689
v 9.200207 2.600734 0.031689
v 10.749120 2.607009 0.031689
v 9.000000 -1.000000 -1.000000
v 11.000000 3.000069 -1.000000
v 11.000000 -1.000000 -1.000000
v 9.974663 2.872431 0.323147
v 10.000000 3.300000 -1.000000
v 9.114157 0.038678 0.326651
v 0.835171 -4.821830 0.031689
v -0.885843 -3.100815 0.031689
v 0.835171 -3.100815 0.031689
v -0.999999 -3.000000 -1.000000
v 1.000000 -3.000000 -1.000000
v -0.025336 -4.821830 0.323147
v -0.025336 -3.100815 0.323147
v 0.835171 -3.961323 0.326255
v -0.025336 -3.961323 0.323147
v -0.885843 -4.821830 0.031689
v -0.999999 -5.000000 -1.000000
v 1.000000 -5.000000 -1.000000
v -0.885843 -3.961323 0.326651
v 5.835171 -4.821830 0.031689
v 4.114157 -3.100815 0.031689
v 5.835171 -3.100815 0.031689
v 4.000000 -3.000000 -1.000000
v 6.000000 -3.000000 -1.000000
v 4.974664 -4.821830 0.323147
v 4.974664 -3.100815 0.323147
v 5.835171 -3.961323 0.326255
v 4.974664 -3.961323 0.323147
v 4.114157 -4.821830 0.031689
v 4.000000 -5.000000 -1.000000
v 6.000000 -5.000000 -1.000000
v 4.114157 -3.961323 0.326651
v 10.835171 -4.821830 0.031689
v 9.114157 -3.100815 0.031689
v 10.835171 -3.100815 0.031689
v 9.000000 -3.000000 -1.000000
v 11.000000 -3.000000 -1.000000
v 9.974663 -4.821830 0.323147
v 9.974663 -3.100815 0.323147
v 10.835171 -3.961323 0.326255
v 9.974663 -3.961323 0.323147
v 9.114157 -4.821830 0.031689
v 9.000000 -5.000000 -1.000000
v 11.000000 -5.000000 -1.000000
v 9.114157 -3.961323 0.326651
v 0.835171 -6.450000 0.031689
v -0.885843 -6.450000 0.031689
v -0.999999 -6.450000 -1.000000
v 1.000000 -6.450000 -1.000000
v -0.025336 -6.450000 0.323147
v 5.835171 -6.450000 0.031689
v 4.114157 -6.450000 0.031689
v 4.000000 -6.450000 -1.000000
v 6.000000 -6.450000 -1.000000
v 4.974664 -6.450000 0.323147
v 10.835171 -6.450000 0.031689
v 9.114157 -6.450000 0.031689
v 9.000000 -6.450000 -1.000000
v 11.000000 -6.450000 -1.000000
v 9.974663 -6.450000 0.323147
vt 0.935106 0.478954
vt 0.940874 0.449372
vt 0.896470 0.418730
vt 0.882374 0.476185
vt 0.008819 0.248504
vt 0.044629 0.235470
vt 0.047409 0.207814
vt 0.000083 0.207691
vt 0.043364 0.180311
vt 0.007535 0.166527
vt 0.994681 0.167402
vt 0.954385 0.180265
vt 0.948638 0.210242
vt 0.999917 0.212488
vt 0.957889 0.299292
vt 0.988427 0.255732
vt 0.950528 0.240381
vt 0.903023 0.267604
vt 0.966579 0.120181
vt 0.910647 0.149512
vt 0.973149 0.524683
vt 0.936521 0.508248
vt 0.891811 0.532247
vt 0.939998 0.566275
vt 0.985786 0.481935
vt 0.981145 0.436933
vt 0.872911 0.611605
vt 0.901048 0.648028
vt 0.802641 0.666647
vt 0.855015 0.672811
vt 0.845911 0.619095
vt 0.817574 0.621774
vt 0.832232 0.531504
vt 0.769653 0.546797
vt 0.761433 0.410747
vt 0.721645 0.371501
vt 0.605954 0.367028
vt 0.562923 0.409265
vt 0.828426 0.476008
vt 0.829303 0.417061
vt 0.769004 0.478638
vt 0.735482 0.603334
vt 0.953713 0.389467
vt 0.595487 0.608822
vt 0.557205 0.553229
vt 0.516336 0.634795
vt 0.535939 0.677423
vt 0.435392 0.676017
vt 0.485646 0.691863
vt 0.487327 0.636751
vt 0.458166 0.634119
vt 0.554691 0.480542
vt 0.489029 0.541332
vt 0.420576 0.550043
vt 0.418696 0.408146
vt 0.377728 0.368266
vt 0.264433 0.364262
vt 0.223702 0.404035
vt 0.489798 0.478831
vt 0.490142 0.413784
vt 0.425224 0.478980
vt 0.379441 0.603095
vt 0.240648 0.596624
vt 0.210158 0.538512
vt 0.159357 0.609635
vt 0.170725 0.654647
vt 0.073033 0.632384
vt 0.118535 0.659031
vt 0.131380 0.606094
vt 0.104482 0.597649
vt 0.213745 0.470265
vt 0.149180 0.519702
vt 0.090185 0.516523
vt 0.045829 0.433269
vt 0.092630 0.406047
vt 0.039591 0.376580
vt 0.008917 0.417873
vt 0.086554 0.152442
vt 0.035872 0.126105
vt 0.045715 0.489838
vt 0.102599 0.462558
vt 0.049093 0.461781
vt 0.155416 0.465183
vt 0.039469 0.546784
vt 0.156709 0.407754
vt 0.822282 0.038431
vt 0.779017 0.124380
vt 0.845546 0.142846
vt 0.863602 0.050831
vt 0.604534 0.301602
vt 0.564395 0.260589
vt 0.000083 0.460667
vt 0.894093 0.206764
vt 0.743022 0.065792
vt 0.603779 0.058053
vt 0.562051 0.113290
vt 0.834562 0.263060
vt 0.837680 0.202097
vt 0.775819 0.195897
vt 0.781527 0.015342
vt 0.764190 0.264852
vt 0.720626 0.301453
vt 0.907612 0.054695
vt 0.958165 0.051652
vt 0.419189 0.115530
vt 0.489809 0.122914
vt 0.486006 0.028085
vt 0.445331 0.025422
vt 0.262070 0.302145
vt 0.223221 0.264802
vt 0.491066 0.254107
vt 0.418045 0.259058
vt 0.376033 0.064115
vt 0.241993 0.071663
vt 0.209949 0.128916
vt 0.490763 0.187848
vt 0.424895 0.187832
vt 0.403554 0.011236
vt 0.572008 0.000083
vt 0.527200 0.019634
vt 0.375473 0.297800
vt 0.557252 0.186980
vt 0.086911 0.069123
vt 0.146241 0.146868
vt 0.125820 0.062565
vt 0.008925 0.503364
vt 0.155980 0.260745
vt 0.090776 0.262837
vt 0.212765 0.197180
vt 0.153719 0.202656
vt 0.100457 0.206172
vt 0.036754 0.290803
vt 0.043784 0.067898
vt 0.163247 0.047141
vt 0.202602 0.021325
vn -0.5921 0.0025 0.8058
vn -0.4518 -0.6799 0.5775
vn -0.3702 -0.3915 0.8424
vn -0.0746 0.0000 0.9972
vn 0.6403 0.7403 0.2045
vn 0.4518 0.7007 0.5521
vn 0.5923 0.0025 0.8057
vn 0.9728 -0.0051 0.2315
vn 0.4520 -0.6798 0.5775
vn 0.6193 -0.7428 0.2544
vn -0.6193 -0.7428 0.2544
vn -0.9728 -0.0051 0.2315
vn -0.6964 0.7027 0.1457
vn -0.6403 0.7403 0.2045
vn -0.4516 0.7008 0.5522
vn -0.3863 0.3974 0.8324
vn -0.7087 -0.6778 0.1955
vn -0.3851 0.4031 0.8302
vn -0.6827 0.7093 0.1756
vn -0.6989 0.3838 0.6035
vn -0.7465 0.5923 0.3030
vn 0.7448 0.5787 0.3321
vn 0.0030 0.9327 0.3606
vn -0.0032 0.5876 0.8091
vn 0.6842 0.3849 0.6194
vn 0.0000 0.0908 0.9958
vn 0.3859 0.3862 0.8378
vn 0.3715 -0.3750 0.8493
vn 0.6916 -0.6851 0.2288
vn -0.3748 -0.3852 0.8432
vn 0.0001 0.0000 1.0000
vn 0.0000 -0.0864 0.9962
vn 0.0845 0.0000 0.9964
vn 0.6656 0.7171 0.2064
vn -0.3897 0.3969 0.8310
vn -0.0845 0.0000 0.9964
vn 0.3814 0.3924 0.8370
vn 0.3671 -0.3812 0.8484
vn 0.0751 0.0000 0.9972
vn 0.7640 0.0000 0.6452
vn 0.0000 0.0000 1.0000
vn -0.3910 0.3910 0.8332
vn 0.0000 0.0864 0.9962
vn 0.9875 0.0000 0.1578
vn 0.3872 0.3802 0.8399
vn 0.6803 0.7109 0.1781
vn -0.7793 0.0000 0.6266
vn -0.9939 0.0000 0.1100
vn 0.3827 0.3865 0.8391
usemtl Материал
s 1
f 23/1/1 19/2/2 35/3/3 43/4/4
f 10/5/5 8/6/6 11/7/7 12/8/8
f 11/7/7 7/9/9 9/10/10 12/8/8
f 15/11/11 13/12/2 17/13/1 18/14/12
f 85/15/13 16/16/14 14/17/15 83/18/16
f 15/11/11 92/19/17 91/20/3 13/12/2
f 17/13/1 14/17/15 16/16/14 18/14/12
f 22/21/14 20/22/15 26/23/18 28/24/19
f 23/1/1 20/22/15 22/21/14 24/25/12
f 21/26/11 19/2/2 23/1/1 24/25/12
f 28/24/19 26/23/18 36/27/20 30/28/21
f 39/29/22 42/30/23 41/31/24 37/32/25
f 41/31/24 32/33/26 27/34/27 37/32/25
f 23/1/1 43/4/4 26/23/18 20/22/15
f 25/35/28 40/36/29 57/37/17 54/38/30
f 34/39/31 31/40/32 25/35/28 33/41/33
f 39/29/22 37/32/25 27/34/27 29/42/34
f 30/28/21 36/27/20 41/31/24 42/30/23
f 21/26/11 38/43/17 35/3/3 19/2/2
f 47/44/19 45/45/35 55/46/20 49/47/21
f 36/27/20 26/23/18 32/33/26 41/31/24
f 27/34/27 32/33/26 34/39/31 33/41/33
f 35/3/3 31/40/32 34/39/31 43/4/4
f 43/4/4 34/39/31 32/33/26 26/23/18
f 58/48/22 61/49/23 60/50/24 56/51/25
f 33/41/33 25/35/28 54/38/30 62/52/36
f 60/50/24 51/53/26 46/54/27 56/51/25
f 44/55/28 59/56/29 76/57/17 73/58/30
f 53/59/31 50/60/32 44/55/28 52/61/33
f 58/48/22 56/51/25 46/54/27 48/62/34
f 29/42/34 27/34/27 45/45/35 47/44/19
f 49/47/21 55/46/20 60/50/24 61/49/23
f 66/63/19 64/64/35 74/65/20 68/66/21
f 55/46/20 45/45/35 51/53/26 60/50/24
f 46/54/27 51/53/26 53/59/31 52/61/33
f 54/38/30 50/60/32 53/59/31 62/52/36
f 62/52/36 53/59/31 51/53/26 45/45/35
f 77/67/22 80/68/23 79/69/24 75/70/25
f 27/34/27 33/41/33 62/52/36 45/45/35
f 52/61/33 44/55/28 73/58/30 81/71/36
f 79/69/24 70/72/26 65/73/37 75/70/25
f 46/54/27 52/61/33 81/71/36 64/64/35
f 1/74/9 63/75/38 78/76/29 3/77/10
f 7/9/9 108/78/38 119/79/29 9/10/10
f 2/80/6 65/73/37 71/81/39 5/82/7
f 48/62/34 46/54/27 64/64/35 66/63/19
f 68/66/21 74/65/20 79/69/24 80/68/23
f 35/3/3 38/43/17 85/15/13 83/18/16
f 74/65/20 64/64/35 70/72/26 79/69/24
f 65/73/37 70/72/26 72/83/31 71/81/39
f 77/67/22 75/70/25 65/73/37 67/84/34
f 73/58/30 69/85/32 72/83/31 81/71/36
f 81/71/36 72/83/31 70/72/26 64/64/35
f 72/83/31 69/85/32 63/75/38 71/81/39
f 121/86/40 82/87/28 87/88/32 125/89/41
f 54/38/30 57/37/17 98/90/13 96/91/42
f 5/82/7 1/74/9 3/77/10 6/92/8
f 94/93/4 83/18/16 14/17/15 17/13/1
f 82/87/28 93/94/29 105/95/17 104/96/30
f 31/40/32 35/3/3 83/18/16 88/97/43
f 90/98/31 87/88/32 82/87/28 89/99/33
f 124/100/44 93/94/29 82/87/28 121/86/40
f 25/35/28 31/40/32 88/97/43 84/101/45
f 40/36/29 25/35/28 84/101/45 86/102/46
f 87/88/32 91/20/3 122/103/47 125/89/41
f 122/103/47 91/20/3 92/19/17 123/104/48
f 94/93/4 17/13/1 13/12/2 91/20/3
f 84/101/45 88/97/43 90/98/31 89/99/33
f 91/20/3 87/88/32 90/98/31 94/93/4
f 94/93/4 90/98/31 88/97/43 83/18/16
f 95/105/28 100/106/32 130/107/41 126/108/40
f 73/58/30 76/57/17 111/109/13 109/110/42
f 44/55/28 50/60/32 101/111/43 97/112/45
f 95/105/28 106/113/29 118/114/17 117/115/30
f 50/60/32 54/38/30 96/91/42 101/111/43
f 103/116/31 100/106/32 95/105/28 102/117/33
f 129/118/44 106/113/29 95/105/28 126/108/40
f 104/96/30 105/95/17 128/119/48 127/120/47
f 59/56/29 44/55/28 97/112/45 99/121/46
f 130/107/41 100/106/32 104/96/30 127/120/47
f 86/102/46 84/101/45 96/91/42 98/90/13
f 89/99/33 82/87/28 104/96/30 107/122/36
f 97/112/45 101/111/43 103/116/31 102/117/33
f 104/96/30 100/106/32 103/116/31 107/122/36
f 107/122/36 103/116/31 101/111/43 96/91/42
f 84/101/45 89/99/33 107/122/36 96/91/42
f 131/123/40 108/78/38 113/124/32 135/125/41
f 67/84/34 65/73/37 2/80/6 4/126/5
f 63/75/38 69/85/32 114/127/43 110/128/49
f 97/112/45 102/117/33 120/129/36 109/110/42
f 69/85/32 73/58/30 109/110/42 114/127/43
f 116/130/31 113/124/32 108/78/38 115/131/39
f 78/76/29 63/75/38 110/128/49 112/132/46
f 134/133/44 119/79/29 108/78/38 131/123/40
f 132/134/47 117/115/30 118/114/17 133/135/48
f 115/131/39 108/78/38 7/9/9 11/7/7
f 135/125/41 113/124/32 117/115/30 132/134/47
f 99/121/46 97/112/45 109/110/42 111/109/13
f 102/117/33 95/105/28 117/115/30 120/129/36
f 110/128/49 114/127/43 116/130/31 115/131/39
f 112/132/46 110/128/49 8/6/6 10/5/5
f 117/115/30 113/124/32 116/130/31 120/129/36
f 120/129/36 116/130/31 114/127/43 109/110/42
f 71/81/39 63/75/38 1/74/9 5/82/7
f 115/131/39 11/7/7 8/6/6 110/128/49
f 4/126/5 2/80/6 5/82/7 6/92/8
